<svg id="Layer_1" enable-background="new 0 0 512 512" height="512" viewBox="0 0 512 512" width="512" xmlns="http://www.w3.org/2000/svg"><g><path d="m155.31 43.31 11.32-11.31h73.37v32h-24c-8.837 0-16 7.163-16 16v19c0 2.761 2.239 5 5 5h102c2.761 0 5-2.239 5-5v-19c0-8.837-7.163-16-16-16h-24v-32h15.551c8.618 0 16.03-6.626 16.431-15.235.428-9.188-6.888-16.765-15.982-16.765h-127.987c-4.247 0-8.32 1.687-11.323 4.69l-16 16c-6.25 6.24-6.25 16.38 0 22.62 6.24 6.25 16.38 6.25 22.62 0z"/><path d="m344 209.81c-105.66-2.173-65.19-2.279-176 0-32.02 7.3-56 35.99-56 70.19v184c0 26.47 21.53 48 48 48h192c26.47 0 48-21.53 48-48v-184c0-34.2-23.98-62.89-56-70.19zm-88 206.19c-30.88 0-56-25.12-56-56 0-38.43 41.13-73.47 45.82-77.34 5.91-4.88 14.45-4.88 20.36 0 4.69 3.87 45.82 38.91 45.82 77.34 0 30.88-25.12 56-56 56z"/><path d="m232 360c0 13.23 10.77 24 24 24s24-10.77 24-24c0-12.725-10.444-27.791-20.268-38.892-1.981-2.239-5.483-2.239-7.465-.001-9.824 11.094-20.267 26.16-20.267 38.893z"/><path d="m168 152v19c0 2.761 2.239 5 5 5h166c2.761 0 5-2.239 5-5v-19c0-8.837-7.163-16-16-16h-144c-8.837 0-16 7.163-16 16z"/></g></svg>